# xmcd CD database file
#
# Track frame offsets:
#	150
#	19157
#	32212
#	46197
#	63860
#	80850
#	93200
#	112362
#	138200
#	152367
#	166595
#	176897
#	193850
#
# Disc length: 2816 seconds
#
# Revision: 4
# Processed by: cddbd v1.4PL0 Copyright (c) Steve Scherf et al.
# Submitted via: CDex 1.40Beta9
#
DISCID=a70afe0d
DTITLE=Blues Aholics - 2
DYEAR=1997
DGENRE=Blues
TTITLE0=Someday all is gone
TTITLE1=Get back 
TTITLE2=Traffic jam
TTITLE3=Tears in my heart
TTITLE4=Goin'blue
TTITLE5=Be my baby
TTITLE6=Can't get you
TTITLE7=A place in your heart
TTITLE8=Boom boom
TTITLE9=Cry out the blues
TTITLE10=I need you
TTITLE11=More than enough
TTITLE12=Just live on
EXTD=YEAR: 1997 ID3G: 0
EXTT0=
EXTT1=
EXTT2=
EXTT3=
EXTT4=
EXTT5=
EXTT6=
EXTT7=
EXTT8=
EXTT9=
EXTT10=
EXTT11=
EXTT12=
PLAYORDER=
